<svg width="448" height="512" viewBox="0 0 448 512" fill="none" xmlns="http://www.w3.org/2000/svg">
<g clip-path="url(#clip0_1_3)">
<path d="M160 64C160 55.2 167.2 48 176 48C184.8 48 192 55.2 192 64V200C192 210.3 198.6 219.5 208.4 222.8C218.2 226.1 229 222.7 235.2 214.5C238.2 210.6 242.8 208.1 248 208.1C256.8 208.1 264 215.3 264 224.1C264 234.4 270.6 243.6 280.4 246.9C290.2 250.2 301 246.8 307.2 238.6C310.2 234.7 314.8 232.2 320 232.2C327.8 232.2 334.3 237.8 335.7 245.2C337.3 253.4 343 260.3 350.8 263.2C358.6 266.1 367.5 264.8 374.1 259.6C376.8 257.5 380.2 256.2 384 256.2C392.8 256.2 400 263.4 400 272.2V288.2V392.2C400 432 367.8 464.2 328 464.2H272H212.2H211.3C173.9 464.2 138.9 445.5 118.1 414.3L50.7 312.9C45.8 305.5 47.8 295.6 55.1 290.7C62.4 285.8 72.4 287.8 77.3 295.1L116 353.2C121.9 362 132.8 365.9 142.9 362.9C153 359.9 159.9 350.5 159.9 339.9V320V64H160ZM176 0C140.7 0 112 28.7 112 64V261.7C91.2 238 55.5 232.8 28.5 250.7C-0.899998 270.4 -8.9 310.1 10.8 339.5L78.3 440.8C108 485.3 157.9 512 211.4 512H212.3H272.1H328.1C394.4 512 448.1 458.3 448.1 392V288V272C448.1 236.7 419.4 208 384.1 208C379.6 208 375.3 208.5 371.1 209.3C359.4 193.9 340.9 184 320.1 184C313.2 184 306.6 185.1 300.4 187.1C288.7 170.7 269.6 160 248 160C245.3 160 242.6 160.2 240 160.5V64C240 28.7 211.3 0 176 0ZM224 304C224 295.2 216.8 288 208 288C199.2 288 192 295.2 192 304V400C192 408.8 199.2 416 208 416C216.8 416 224 408.8 224 400V304ZM272 288C263.2 288 256 295.2 256 304V400C256 408.8 263.2 416 272 416C280.8 416 288 408.8 288 400V304C288 295.2 280.8 288 272 288ZM352 304C352 295.2 344.8 288 336 288C327.2 288 320 295.2 320 304V400C320 408.8 327.2 416 336 416C344.8 416 352 408.8 352 400V304Z" fill="#48B9CA"/>
</g>
<defs>
<clipPath id="clip0_1_3">
<rect width="448" height="512" fill="white"/>
</clipPath>
</defs>
</svg>
